<?xml version="1.0" encoding="UTF-8"?>
<svg version="1.1" xmlns="http://www.w3.org/2000/svg" width="38" height="38">
<path d="M0 0 C3.88778416 3.25488907 5.45673116 5.50275021 6.125 10.5625 C5.30213605 17.49806755 1.4971192 22.53557121 -2.3125 28.25 C-3.02823527 29.89619113 -3.7150696 31.55728055 -4.3125 33.25 C-6.6225 33.25 -8.9325 33.25 -11.3125 33.25 C-11.53679688 32.60546875 -11.76109375 31.9609375 -11.9921875 31.296875 C-13.14139456 29.00611148 -13.14139456 29.00611148 -15.6953125 28.640625 C-17.05269531 28.57101563 -17.05269531 28.57101563 -18.4375 28.5 C-19.34757812 28.44328125 -20.25765625 28.3865625 -21.1953125 28.328125 C-22.24332031 28.28945313 -22.24332031 28.28945313 -23.3125 28.25 C-23.6425 25.28 -23.9725 22.31 -24.3125 19.25 C-24.9725 19.25 -25.6325 19.25 -26.3125 19.25 C-25.4375 15.375 -25.4375 15.375 -24.3125 14.25 C-24.04328423 12.66982048 -23.79706993 11.08569272 -23.5625 9.5 C-22.62531605 4.67625906 -21.40022186 2.22288863 -17.3125 -0.75 C-11.21745421 -3.72980016 -5.85734142 -3.09444452 0 0 Z M-13.3125 15.25 C-12.9825 18.22 -12.6525 21.19 -12.3125 24.25 C-10.15872436 21.62801226 -8.91177826 19.60595828 -8.3125 16.25 C-9.9625 15.92 -11.6125 15.59 -13.3125 15.25 Z " fill="#0D4DA1" transform="translate(29.3125,3.75)"/>
<path d="M0 0 C0.33 1.32 0.66 2.64 1 4 C-1.31 3.34 -3.62 2.68 -6 2 C-6.33 4.97 -6.66 7.94 -7 11 C-6.34 11 -5.68 11 -5 11 C-5 13.31 -5 15.62 -5 18 C-5.66 18 -6.32 18 -7 18 C-9.66213922 7.51782683 -9.66213922 7.51782683 -9 2 C-6.14472183 -1.38403338 -4.078958 -1.24634828 0 0 Z " fill="#05296B" transform="translate(22,14)"/>
<path d="M0 0 C3.04386724 -0.08226668 5.07175348 0.02391783 8 1 C7.45276317 4.37462715 6.9451 6.08235 5 9 C4.34 8.67 3.68 8.34 3 8 C3.33 6.68 3.66 5.36 4 4 C2.68 3.67 1.36 3.34 0 3 C0.33 4.98 0.66 6.96 1 9 C0.34 9 -0.32 9 -1 9 C-1.125 2.25 -1.125 2.25 0 0 Z " fill="#0C3A84" transform="translate(16,16)"/>
<path d="M0 0 C3.3 0.33 6.6 0.66 10 1 C9.34 2.32 8.68 3.64 8 5 C5.69 5 3.38 5 1 5 C0.67 3.35 0.34 1.7 0 0 Z " fill="#11459B" transform="translate(17,32)"/>
</svg>
