<?xml version="1.0" encoding="UTF-8"?>
<svg version="1.1" xmlns="http://www.w3.org/2000/svg" width="100" height="93">
<path d="M0 0 C2.3125 1.4375 2.3125 1.4375 4 3 C4 3.66 4 4.32 4 5 C4.56203125 5.25523437 5.1240625 5.51046875 5.703125 5.7734375 C8.29386482 7.15692781 10.45107845 8.79938583 12.75 10.625 C13.54921875 11.25664062 14.3484375 11.88828125 15.171875 12.5390625 C15.77515625 13.02117188 16.3784375 13.50328125 17 14 C20.70325251 11.29418513 24.34052567 8.57313647 27.8046875 5.5625 C28.75601563 4.7375 29.70734375 3.9125 30.6875 3.0625 C32.02361328 1.87333984 32.02361328 1.87333984 33.38671875 0.66015625 C36 -1 36 -1 38.3515625 -1.04296875 C42.08684649 0.42800592 45.32392463 2.44917724 48.6875 4.625 C49.74227539 5.29571533 49.74227539 5.29571533 50.81835938 5.97998047 C56.31944545 9.50072598 61.71418607 13.16270239 67 17 C65.77286715 20.68139855 64.35948977 21.53396451 61.3125 23.875 C58.31927622 26.19592602 55.35969006 28.51639821 52.5 31 C50 33 50 33 48 33 C48 33.66 48 34.32 48 35 C48.515625 35.226875 49.03125 35.45375 49.5625 35.6875 C52.89547005 37.48217618 56.14703671 39.49965015 59 42 C59 42.66 59 43.32 59 44 C59.5775 44.268125 60.155 44.53625 60.75 44.8125 C63.05550043 46.02929189 65.02056192 47.30333879 67 49 C67 49.66 67 50.32 67 51 C64.90234375 52.59375 64.90234375 52.59375 61.9375 54.5 C60.85210937 55.19996094 59.76671875 55.89992187 58.6484375 56.62109375 C58.06030273 56.99991699 57.47216797 57.37874023 56.86621094 57.76904297 C54.89474096 59.06942911 52.96618061 60.41999669 51.0390625 61.78515625 C50.377854 62.24664062 49.71664551 62.708125 49.03540039 63.18359375 C47.73775576 64.09054795 46.44756879 65.00828357 45.16577148 65.9375 C42.58161713 67.71972328 40.64410745 68.97121862 37.46484375 69.11328125 C33.97111737 67.53529073 31.31369423 65.17103423 28.5 62.625 C24.82375523 59.34964503 21.34693523 56.38432642 17 54 C15.824375 54.99 15.824375 54.99 14.625 56 C12 58 12 58 10 58 C10 58.66 10 59.32 10 60 C6.53846154 63 6.53846154 63 4 63 C4 63.66 4 64.32 4 65 C1.8125 67.1875 1.8125 67.1875 -1 69 C-6.1679013 68.85047664 -10.10796673 65.59465297 -14.25 62.8125 C-15.00273193 62.31580811 -15.75546387 61.81911621 -16.53100586 61.30737305 C-18.69237026 59.87898295 -20.84681397 58.4406772 -23 57 C-24.02738281 56.319375 -25.05476563 55.63875 -26.11328125 54.9375 C-28.08056411 53.63225332 -30.04337352 52.32114096 -32 51 C-31.61823342 48.48650576 -31.25496173 47.25067368 -29.41772461 45.44433594 C-28.42011108 44.72165527 -28.42011108 44.72165527 -27.40234375 43.984375 C-26.68369141 43.45585938 -25.96503906 42.92734375 -25.22460938 42.3828125 C-24.46986328 41.84398437 -23.71511719 41.30515625 -22.9375 40.75 C-21.79958008 39.91855469 -21.79958008 39.91855469 -20.63867188 39.0703125 C-18.76578134 37.70392695 -16.88630798 36.34777038 -15 35 C-16.82723355 30.88087185 -19.50150212 28.8971563 -23.125 26.375 C-25.13924863 24.96456503 -27.06952056 23.52903417 -29 22 C-29 21.34 -29 20.68 -29 20 C-29.99 19.67 -30.98 19.34 -32 19 C-30.50513587 14.67173327 -27.29442994 12.94654708 -23.5625 10.6875 C-22.29400224 9.90277776 -21.0257764 9.11761582 -19.7578125 8.33203125 C-19.12520508 7.94354004 -18.49259766 7.55504883 -17.84082031 7.15478516 C-16.13591324 6.08526122 -14.46824709 4.95698487 -12.8046875 3.82421875 C-11.38542969 2.85935547 -11.38542969 2.85935547 -9.9375 1.875 C-8.68259766 1.00488281 -8.68259766 1.00488281 -7.40234375 0.1171875 C-4.43179666 -1.26423765 -3.06997151 -1.01134513 0 0 Z M11.25 19.9375 C7.85506898 22.17040765 4.44841705 24.3471204 0.94140625 26.3984375 C0.25723633 26.7994165 -0.42693359 27.20039551 -1.13183594 27.61352539 C-2.4926149 28.40720538 -3.85652428 29.19554448 -5.22363281 29.97827148 C-6.84870952 30.93143336 -8.429503 31.95936028 -10 33 C-10 33.66 -10 34.32 -10 35 C-7.42435845 36.67884725 -4.85626658 38.23211973 -2.1875 39.75 C-1.03229858 40.41781494 -1.03229858 40.41781494 0.14624023 41.09912109 C6.04510474 44.49541836 11.98887115 47.80618208 18 51 C18.82242188 50.49210937 19.64484375 49.98421875 20.4921875 49.4609375 C26.630396 45.67594519 32.77818116 41.9126431 38.9765625 38.2265625 C40.67843084 37.19492802 42.34411005 36.10392663 44 35 C42.64778066 30.94334197 40.77705524 30.39826779 37.125 28.25 C35.94207714 27.54793742 34.75979657 26.84479163 33.578125 26.140625 C32.6819043 25.60985352 32.6819043 25.60985352 31.76757812 25.06835938 C28.1896341 22.90577884 24.72341844 20.56393392 21.2421875 18.25 C17.00705599 15.88895108 14.95701424 17.46054048 11.25 19.9375 Z " fill="#2F87DB" transform="translate(32,1)"/>
<path d="M0 0 C3.54739656 0.61134272 5.64152448 2.02097272 8.4375 4.25 C9.22511719 4.87777344 10.01273438 5.50554688 10.82421875 6.15234375 C13 8 13 8 15.75 10.8125 C18.19719342 13.19171582 19.62024666 14.42296894 23 15 C26.20212693 13.19867777 26.20212693 13.19867777 29 11 C29.66 11 30.32 11 31 11 C32.12079519 15.82804081 32.12079519 15.82804081 31 19 C27.6212085 21.84911297 23.84652977 23.84723237 19.96435547 25.91308594 C17.91272024 27.0482935 15.94603352 28.27308636 13.97265625 29.5390625 C13.31015869 29.95937744 12.64766113 30.37969238 11.96508789 30.81274414 C10.67666379 31.63215561 9.3930744 32.45923015 8.11499023 33.29467773 C3.64093492 36.06346532 3.64093492 36.06346532 0.58374023 35.76074219 C-2.14959079 34.95595531 -4.2228746 33.9005497 -6.65234375 32.41796875 C-7.51150391 31.89783203 -8.37066406 31.37769531 -9.25585938 30.84179688 C-10.58327148 30.02291992 -10.58327148 30.02291992 -11.9375 29.1875 C-13.25911133 28.38602539 -13.25911133 28.38602539 -14.60742188 27.56835938 C-16.31448428 26.52877755 -18.01623991 25.48041886 -19.71191406 24.42236328 C-21.11289668 23.55145795 -22.52427598 22.69668576 -23.95214844 21.87060547 C-27.85504821 19.5295572 -27.85504821 19.5295572 -28.5859375 16.859375 C-28.390625 14.90625 -28.1953125 12.953125 -28 11 C-25.50638429 12.20381448 -23.31856917 13.45428722 -21 15 C-17.19959136 14.72346299 -14.91496938 12.55649999 -12.0625 10.1875 C-11.22847656 9.50042969 -10.39445312 8.81335938 -9.53515625 8.10546875 C-7.78862213 6.65495737 -6.0466926 5.19888972 -4.30859375 3.73828125 C-2 2 -2 2 0 2 C0 1.34 0 0.68 0 0 Z " fill="#3187DB" transform="translate(48,56)"/>
<path d="M0 0 C0 0.66 0 1.32 0 2 C-3.30350614 5.11997802 -4.32409833 6 -9 6 C-7.68 7.32 -6.36 8.64 -5 10 C-5.33 10.66 -5.66 11.32 -6 12 C-6.78375 11.505 -7.5675 11.01 -8.375 10.5 C-10.78552327 8.83462035 -10.78552327 8.83462035 -13 9 C-13 8.01 -13 7.02 -13 6 C-13.66 6 -14.32 6 -15 6 C-15 5.34 -15 4.68 -15 4 C-15.66 4 -16.32 4 -17 4 C-16.67 3.34 -16.34 2.68 -16 2 C-15.175 2.598125 -14.35 3.19625 -13.5 3.8125 C-10.20237291 5.36802892 -10.20237291 5.36802892 -7.890625 4.0859375 C-6.47846404 3.16339439 -5.09134868 2.20117024 -3.734375 1.19921875 C-2 0 -2 0 0 0 Z " fill="#4A92CF" transform="translate(60,46)"/>
<path d="M0 0 C0.66 0.33 1.32 0.66 2 1 C1.34 3.31 0.68 5.62 0 8 C0.66 8.33 1.32 8.66 2 9 C1.67 9.66 1.34 10.32 1 11 C-0.98 9.68 -2.96 8.36 -5 7 C-4.60196439 4.11424181 -4.20990931 3.17810487 -1.9375 1.25 C-1.298125 0.8375 -0.65875 0.425 0 0 Z " fill="#5398D4" transform="translate(5,45)"/>
<path d="M0 0 C0.97608217 2.92824652 1.08226668 4.95613276 1 8 C-1.31 7.67 -3.62 7.34 -6 7 C-6.33 5.35 -6.66 3.7 -7 2 C-6.401875 2.226875 -5.80375 2.45375 -5.1875 2.6875 C-4.465625 2.790625 -3.74375 2.89375 -3 3 C-1.22809091 1.64555699 -1.22809091 1.64555699 0 0 Z " fill="#4E95D2" transform="translate(53,12)"/>
<path d="M0 0 C0 0.66 0 1.32 0 2 C-2.1875 4.1875 -2.1875 4.1875 -5 6 C-7.8125 5.75 -7.8125 5.75 -10 5 C-10 4.67 -10 4.34 -10 4 C-8.35 4 -6.7 4 -5 4 C-5 3.01 -5 2.02 -5 1 C-2 0 -2 0 0 0 Z " fill="#5491D5" transform="translate(36,64)"/>
<path d="M0 0 C1.32 0 2.64 0 4 0 C4 0.66 4 1.32 4 2 C4.99 2.33 5.98 2.66 7 3 C5.02 3.99 5.02 3.99 3 5 C2.67 4.34 2.34 3.68 2 3 C-0.02463255 2.34786708 -0.02463255 2.34786708 -2 2 C-1.34 2 -0.68 2 0 2 C0 1.34 0 0.68 0 0 Z " fill="#589DD6" transform="translate(76,34)"/>
<path d="M0 0 C0.33 0.66 0.66 1.32 1 2 C-0.32 3.65 -1.64 5.3 -3 7 C-4.32 6.67 -5.64 6.34 -7 6 C-4.69 4.02 -2.38 2.04 0 0 Z " fill="#4990D4" transform="translate(46,58)"/>
<path d="M0 0 C0 2.64 0 5.28 0 8 C-0.33 6.68 -0.66 5.36 -1 4 C-1.99 4.33 -2.98 4.66 -4 5 C-4.66 4.34 -5.32 3.68 -6 3 C-2.25 0 -2.25 0 0 0 Z " fill="#448BC9" transform="translate(79,67)"/>
<path d="M0 0 C3.465 1.98 3.465 1.98 7 4 C6.67 4.99 6.34 5.98 6 7 C5.34 7 4.68 7 4 7 C4 6.01 4 5.02 4 4 C3.34 4 2.68 4 2 4 C2 3.34 2 2.68 2 2 C1.34 2 0.68 2 0 2 C0 1.34 0 0.68 0 0 Z " fill="#5CA0D5" transform="translate(43,48)"/>
</svg>
