<?xml version="1.0" encoding="UTF-8"?>
<svg version="1.1" xmlns="http://www.w3.org/2000/svg" width="100" height="91">
<path d="M0 0 C1.08474609 -0.01224609 2.16949219 -0.02449219 3.28710938 -0.03710938 C4.33576172 -0.03904297 5.38441406 -0.04097656 6.46484375 -0.04296875 C7.41866943 -0.04707764 8.37249512 -0.05118652 9.35522461 -0.05541992 C14.04671833 0.36554105 17.46143596 1.97200521 20.69628906 5.42529297 C23.90238182 9.56067136 26.36321983 14.20731688 28.9375 18.75 C29.52402344 19.77158203 30.11054687 20.79316406 30.71484375 21.84570312 C31.90132058 23.91225892 33.08507188 25.98038187 34.26611328 28.05004883 C37.7485597 34.13226123 41.27630769 40.18887668 44.86303711 46.21020508 C48.02964548 51.56972288 50.86689158 56.79644364 50.0625 63.1875 C48.05620916 68.47623503 45.47060925 73.42209599 42.75 78.375 C42.20182617 79.42204102 42.20182617 79.42204102 41.64257812 80.49023438 C41.26939453 81.16763672 40.89621094 81.84503906 40.51171875 82.54296875 C40.18518311 83.14778076 39.85864746 83.75259277 39.5222168 84.37573242 C36.41424732 88.23327407 34.00809173 89.93502704 29.09944153 90.57200623 C25.30438491 90.75163351 21.52076249 90.79778982 17.72265625 90.7890625 C16.31310018 90.79684657 14.90354875 90.80551799 13.4940033 90.81503296 C10.54605879 90.82991687 7.59859348 90.82940505 4.65063477 90.81884766 C0.88640456 90.80725884 -2.87585709 90.84112964 -6.63976192 90.887537 C-9.54907044 90.91710662 -12.45790981 90.91874281 -15.367342 90.91251755 C-16.75434838 90.91353917 -18.14138269 90.92392465 -19.52824211 90.94414139 C-31.68235018 91.09959744 -31.68235018 91.09959744 -36.1965332 87.35253906 C-43.06774517 80.21365041 -49.83696587 68.32008176 -50 58.375 C-49.3813709 54.94438278 -48.02948302 52.2712881 -46.3359375 49.23828125 C-45.79622314 48.26930908 -45.25650879 47.30033691 -44.70043945 46.30200195 C-41.65337096 40.91888981 -38.5909471 35.5455609 -35.5 30.1875 C-34.87029297 29.08921875 -34.24058594 27.9909375 -33.59179688 26.859375 C-19.48133774 2.3799762 -19.48133774 2.3799762 -14.13452148 0.58081055 C-9.48167466 -0.25214159 -4.71251141 0.00279012 0 0 Z M-0.9375 33.1875 C-2.93401786 36.72805741 -4.92777477 40.2701531 -6.91894531 43.8137207 C-7.597217 45.01988025 -8.276252 46.22561088 -8.95605469 47.4309082 C-9.93102676 49.1598492 -10.9030604 50.8904462 -11.875 52.62109375 C-12.46152344 53.66322021 -13.04804687 54.70534668 -13.65234375 55.77905273 C-15.01596232 57.87956232 -15.01596232 57.87956232 -14.9375 59.1875 C-5.0375 59.1875 4.8625 59.1875 15.0625 59.1875 C13.78485343 55.99338358 12.66453574 53.30121937 11.00390625 50.375 C10.61783203 49.69179688 10.23175781 49.00859375 9.83398438 48.3046875 C9.43501953 47.60601562 9.03605469 46.90734375 8.625 46.1875 C8.22990234 45.48882812 7.83480469 44.79015625 7.42773438 44.0703125 C6.66075959 42.71757827 5.88960967 41.36720046 5.11376953 40.01953125 C4.1945404 38.41760477 3.29661122 36.80349392 2.40234375 35.1875 C1.96019531 34.5275 1.51804687 33.8675 1.0625 33.1875 C0.4025 33.1875 -0.2575 33.1875 -0.9375 33.1875 Z " fill="#69A95B" transform="translate(49.9375,-0.1875)"/>
<path d="M0 0 C3.68225597 1.45141101 5.01108946 3.14758571 6.953125 6.55078125 C7.75254517 7.93076294 7.75254517 7.93076294 8.56811523 9.33862305 C9.12313721 10.32000244 9.67815918 11.30138184 10.25 12.3125 C11.4118163 14.32606588 12.57457305 16.33908942 13.73828125 18.3515625 C14.29854004 19.32641602 14.85879883 20.30126953 15.43603516 21.30566406 C17.37303645 24.64265224 19.39044141 27.91695764 21.4375 31.1875 C24.84313383 36.68393434 28.01616049 42.26398553 31 48 C31.35320312 48.62261719 31.70640625 49.24523438 32.0703125 49.88671875 C34.69191293 54.95278444 34.17502576 59.59931738 33 65 C31.52108546 68.54082049 29.6398067 71.74014609 27.625 75 C27.13 75.84433594 26.635 76.68867187 26.125 77.55859375 C22.44997089 83.70001941 22.44997089 83.70001941 19 86 C18.01 86 17.02 86 16 86 C15.5875 85.14019531 15.175 84.28039062 14.75 83.39453125 C9.86278235 73.39100762 4.4031362 63.96382806 -1.875 54.75 C-4.88530956 50.29306946 -7.63240467 45.68696723 -10.375 41.0625 C-11.0553833 39.92409668 -11.0553833 39.92409668 -11.74951172 38.76269531 C-12.16990723 38.04823242 -12.59030273 37.33376953 -13.0234375 36.59765625 C-13.40419434 35.95320557 -13.78495117 35.30875488 -14.17724609 34.64477539 C-15 33 -15 33 -15 31 C-15.66 30.67 -16.32 30.34 -17 30 C-11.54819328 19.88111631 -5.94951903 9.83604694 0 0 Z " fill="#F1BE54" transform="translate(66,2)"/>
<path d="M0 0 C4.48494024 0.01943017 8.96800475 0.07117187 13.45214844 0.15258789 C14.97677933 0.17575217 16.50156988 0.19016 18.02636719 0.19555664 C20.22171322 0.20485895 22.41455412 0.24586696 24.609375 0.29296875 C25.92905273 0.3086792 27.24873047 0.32438965 28.60839844 0.34057617 C32 1 32 1 34.27563477 3.23535156 C34.84467529 4.14768555 35.41371582 5.06001953 36 6 C36.76219849 7.20378296 36.76219849 7.20378296 37.53979492 8.43188477 C39.0940798 11.13930626 40.64683896 13.84729399 42.1875 16.5625 C42.73341797 17.50802734 43.27933594 18.45355469 43.84179688 19.42773438 C44.36193359 20.33974609 44.88207031 21.25175781 45.41796875 22.19140625 C45.89000732 23.01842041 46.3620459 23.84543457 46.84838867 24.69750977 C47.91590884 26.83187117 48.63110962 28.64608145 49 31 C47.2103919 32.7896081 44.54235584 32.17424173 42.12255859 32.20874023 C40.86389984 32.22803085 39.60524109 32.24732147 38.30844116 32.26719666 C36.92178371 32.28200721 35.53511484 32.29578011 34.1484375 32.30859375 C33.10379271 32.31845149 33.10379271 32.31845149 32.03804398 32.32850838 C28.34716067 32.36114279 24.65630659 32.3855759 20.96533203 32.4050293 C17.91542175 32.42280096 14.8664434 32.45754489 11.81689453 32.50756836 C8.13275018 32.56793382 4.44946596 32.598528 0.76485062 32.60820198 C-0.63617321 32.61673608 -2.03717535 32.63550425 -3.4379158 32.6649456 C-15.76635159 32.90998027 -15.76635159 32.90998027 -20.265625 29.18701172 C-23.25643816 26.0760715 -25.39497439 22.49924972 -27.375 18.6875 C-29.34609128 14.59097214 -29.34609128 14.59097214 -32 11 C-32.33 8.03 -32.66 5.06 -33 2 C-22.11 2 -11.22 2 0 2 C0 1.34 0 0.68 0 0 Z " fill="#3B8EDD" transform="translate(34,58)"/>
<path d="M0 0 C10.56 0 21.12 0 32 0 C29.74793979 10.13427096 29.74793979 10.13427096 27.72265625 13.52734375 C27.29146484 14.25630859 26.86027344 14.98527344 26.41601562 15.73632812 C25.96935547 16.46271484 25.52269531 17.18910156 25.0625 17.9375 C24.61970703 18.69095703 24.17691406 19.44441406 23.72070312 20.22070312 C20.4153069 25.72312873 20.4153069 25.72312873 17 28 C16.01 28 15.02 28 14 28 C13.57589844 27.12859375 13.15179688 26.2571875 12.71484375 25.359375 C9.17761191 18.15680233 5.45794725 11.18800998 1.28515625 4.328125 C0 2 0 2 0 0 Z " fill="#D4504B" transform="translate(68,60)"/>
<path d="M0 0 C1.5778125 -0.00193359 1.5778125 -0.00193359 3.1875 -0.00390625 C4.280625 -0.00003906 5.37375 0.00382812 6.5 0.0078125 C7.593125 0.00394531 8.68625 0.00007813 9.8125 -0.00390625 C10.864375 -0.00261719 11.91625 -0.00132813 13 0 C14.43859375 0.00169189 14.43859375 0.00169189 15.90625 0.00341797 C18.25803316 0.12074149 20.25052606 0.46499992 22.5 1.1328125 C21.93009639 4.85356248 20.93566788 7.45316661 18.9375 10.6328125 C18.40511719 11.48746094 17.87273438 12.34210937 17.32421875 13.22265625 C16.72222656 14.18300781 16.12023437 15.14335937 15.5 16.1328125 C14.79600811 17.29947519 14.09427647 18.46750404 13.39453125 19.63671875 C12.67981877 20.82299577 11.96497645 22.00919456 11.25 23.1953125 C10.58484375 24.30003906 9.9196875 25.40476562 9.234375 26.54296875 C7.5 29.1328125 7.5 29.1328125 5.5 30.1328125 C5.17128906 29.51277344 4.84257813 28.89273437 4.50390625 28.25390625 C2.12885739 23.83206732 -0.28413117 19.45090487 -2.90234375 15.16796875 C-3.31105713 14.49902588 -3.71977051 13.83008301 -4.14086914 13.14086914 C-4.95583488 11.81483686 -5.77653958 10.49231258 -6.60327148 9.17358398 C-9.5 4.4599578 -9.5 4.4599578 -9.5 1.1328125 C-6.27376992 0.17502545 -3.35907209 0.00395052 0 0 Z " fill="#477B3A" transform="translate(43.5,-0.1328125)"/>
<path d="M0 0 C10.56 0 21.12 0 32 0 C26.98668487 9.57901284 21.78927728 18.86957067 16 28 C9.20484775 24.82798909 6.64803961 18.72590792 3.26953125 12.328125 C2.1996717 10.10557866 2.1996717 10.10557866 1 9 C0.67 6.03 0.34 3.06 0 0 Z " fill="#296EB8" transform="translate(1,60)"/>
<path d="M0 0 C0.33 0.99 0.66 1.98 1 3 C-1.31 5.31 -3.62 7.62 -6 10 C-6 6.41087588 -5.33563446 5.89142971 -3 3.3125 C-2.443125 2.68988281 -1.88625 2.06726563 -1.3125 1.42578125 C-0.879375 0.95527344 -0.44625 0.48476563 0 0 Z " fill="#75AA6E" transform="translate(33,2)"/>
</svg>
