<?xml version="1.0" encoding="UTF-8"?>
<svg version="1.1" xmlns="http://www.w3.org/2000/svg" width="100" height="93">
<path d="M0 0 C4.64990438 2.16461066 6.71605707 4.48387489 9 9 C9.82885269 14.54808604 9.7240695 19.47140883 7.3125 24.5625 C2.33597293 29.80802854 -2.02394904 30.55924733 -9 31 C-9 31.99 -9 32.98 -9 34 C-8.14222458 33.99333817 -8.14222458 33.99333817 -7.26712036 33.98654175 C-1.33028658 33.94239049 4.60650078 33.91216788 10.54345703 33.89013672 C12.76092421 33.88006175 14.97837805 33.86640141 17.19580078 33.84912109 C20.37796312 33.82493837 23.55995024 33.81353203 26.7421875 33.8046875 C28.23599442 33.78920364 28.23599442 33.78920364 29.75997925 33.77340698 C31.14118454 33.77318039 31.14118454 33.77318039 32.55029297 33.77294922 C33.3630368 33.768508 34.17578064 33.76406677 35.01315308 33.75949097 C37 34 37 34 39 36 C39.22416351 38.43904972 39.32809213 40.76140327 39.3359375 43.203125 C39.3459227 44.27623932 39.3459227 44.27623932 39.35610962 45.37103271 C39.36624339 46.8874657 39.37092641 48.40394334 39.37060547 49.92041016 C39.37495784 52.22765047 39.41120651 54.53294482 39.44921875 56.83984375 C39.45509122 58.31509765 39.45905773 59.79036061 39.4609375 61.265625 C39.47530853 61.9502179 39.48967957 62.63481079 39.50448608 63.34014893 C39.44571426 69.58458315 36.92118904 73.07881096 32.625 77.375 C26.91878993 79.93295624 21.15891624 79.30372738 15 79 C14.74605469 79.74894531 14.49210937 80.49789062 14.23046875 81.26953125 C11.79630102 86.67106535 7.02899647 90.1194921 1.6875 92.4375 C-8.20033139 93.94581326 -15.56557529 93.30660505 -23.97265625 87.6796875 C-28.41756208 84.22568425 -31.08127722 80.29138457 -33 75 C-33 74.34 -33 73.68 -33 73 C-33.74161377 73.01047363 -34.48322754 73.02094727 -35.24731445 73.03173828 C-38.60234193 73.07327196 -41.95731533 73.09931789 -45.3125 73.125 C-46.47974609 73.14175781 -47.64699219 73.15851563 -48.84960938 73.17578125 C-50.52700195 73.18544922 -50.52700195 73.18544922 -52.23828125 73.1953125 C-53.7857605 73.21102295 -53.7857605 73.21102295 -55.36450195 73.22705078 C-58 73 -58 73 -61 71 C-61.38095093 68.91271973 -61.38095093 68.91271973 -61.38818359 66.30664062 C-61.39764008 65.33223022 -61.40709656 64.35781982 -61.4168396 63.35388184 C-61.41076691 62.29866333 -61.40469421 61.24344482 -61.3984375 60.15625 C-61.40274277 58.53620056 -61.40274277 58.53620056 -61.40713501 56.88342285 C-61.40917911 54.5969185 -61.40362519 52.31039681 -61.39111328 50.02392578 C-61.37506517 46.51425252 -61.390951 43.00573098 -61.41015625 39.49609375 C-61.40817388 37.27864328 -61.40433034 35.06119353 -61.3984375 32.84375 C-61.40451019 31.78853149 -61.41058289 30.73331299 -61.4168396 29.64611816 C-61.40738312 28.67170776 -61.39792664 27.69729736 -61.38818359 26.69335938 C-61.38579681 25.83335327 -61.38341003 24.97334717 -61.38095093 24.08728027 C-61.25523712 23.39847778 -61.12952332 22.70967529 -61 22 C-57.21157527 19.47438352 -54.21466671 19.74608427 -49.83203125 19.8046875 C-48.63981209 19.80893234 -48.63981209 19.80893234 -47.42350769 19.81326294 C-44.88635162 19.82445295 -42.34954928 19.84955509 -39.8125 19.875 C-38.09180198 19.88503134 -36.37109841 19.89415692 -34.65039062 19.90234375 C-30.43345757 19.92438839 -26.21678875 19.95890994 -22 20 C-22.01957764 19.32380615 -22.03915527 18.6476123 -22.05932617 17.95092773 C-22.08216675 16.61203491 -22.08216675 16.61203491 -22.10546875 15.24609375 C-22.12504639 14.3636499 -22.14462402 13.48120605 -22.16479492 12.57202148 C-21.89779032 8.40477185 -20.51207424 6.32680102 -18 3 C-12.42395863 -1.13831642 -6.67855172 -0.75606246 0 0 Z " fill="#4C5FB4" transform="translate(61,0)"/>
<path d="M0 0 C6.22961977 -0.05059881 12.4591868 -0.08569062 18.68896484 -0.10986328 C20.8094277 -0.11993751 22.92987661 -0.13359733 25.05029297 -0.15087891 C28.09345943 -0.17506489 31.13644266 -0.18646869 34.1796875 -0.1953125 C35.13181122 -0.20563507 36.08393494 -0.21595764 37.06491089 -0.22659302 C37.94567291 -0.22674408 38.82643494 -0.22689514 39.73388672 -0.22705078 C40.51110077 -0.231492 41.28831482 -0.23593323 42.08908081 -0.24050903 C44 0 44 0 46 2 C46.22416351 4.43904972 46.32809213 6.76140327 46.3359375 9.203125 C46.3459227 10.27623932 46.3459227 10.27623932 46.35610962 11.37103271 C46.36624339 12.8874657 46.37092641 14.40394334 46.37060547 15.92041016 C46.37495784 18.22765047 46.41120651 20.53294482 46.44921875 22.83984375 C46.45509122 24.31509765 46.45905773 25.79036061 46.4609375 27.265625 C46.47530853 27.9502179 46.48967957 28.63481079 46.50448608 29.34014893 C46.44571426 35.58458315 43.92118904 39.07881096 39.625 43.375 C33.91878993 45.93295624 28.15891624 45.30372738 22 45 C21.61908203 46.12341797 21.61908203 46.12341797 21.23046875 47.26953125 C18.79630102 52.67106535 14.02899647 56.1194921 8.6875 58.4375 C-1.14860397 59.93792264 -8.79567728 59.4367432 -17.04296875 53.5390625 C-20.28267768 50.90721649 -22.19032871 48.77535708 -24 45 C-23.06148193 44.970271 -23.06148193 44.970271 -22.10400391 44.93994141 C-19.27723481 44.84485774 -16.45122185 44.73511254 -13.625 44.625 C-12.64015625 44.5940625 -11.6553125 44.563125 -10.640625 44.53125 C-9.69960938 44.49257812 -8.75859375 44.45390625 -7.7890625 44.4140625 C-6.91975098 44.3826416 -6.05043945 44.3512207 -5.15478516 44.31884766 C-2.79038206 44.18770567 -2.79038206 44.18770567 -1 42 C-0.67087115 40.10388475 -0.67087115 40.10388475 -0.68115234 37.91748047 C-0.66128265 37.07675995 -0.64141296 36.23603943 -0.62094116 35.36984253 C-0.60938995 34.46146637 -0.59783875 33.55309021 -0.5859375 32.6171875 C-0.56657135 31.68778351 -0.5472052 30.75837952 -0.5272522 29.80081177 C-0.46736315 26.8256352 -0.4210339 23.85042012 -0.375 20.875 C-0.33682879 18.86066 -0.29777757 16.84633646 -0.2578125 14.83203125 C-0.161654 9.88815425 -0.0776576 4.94420083 0 0 Z " fill="#798BE0" transform="translate(54,34)"/>
<path d="M0 0 C3.45826342 -0.05789006 6.91640293 -0.09355821 10.375 -0.125 C11.35984375 -0.14175781 12.3446875 -0.15851562 13.359375 -0.17578125 C14.77089844 -0.18544922 14.77089844 -0.18544922 16.2109375 -0.1953125 C17.51490479 -0.21102295 17.51490479 -0.21102295 18.84521484 -0.22705078 C21 0 21 0 23 2 C23.22416351 4.43904972 23.32809213 6.76140327 23.3359375 9.203125 C23.3425943 9.91853455 23.3492511 10.63394409 23.35610962 11.37103271 C23.36624339 12.8874657 23.37092641 14.40394334 23.37060547 15.92041016 C23.37495784 18.22765047 23.41120651 20.53294482 23.44921875 22.83984375 C23.45509122 24.31509765 23.45905773 25.79036061 23.4609375 27.265625 C23.47530853 27.9502179 23.48967957 28.63481079 23.50448608 29.34014893 C23.45733664 34.34971926 22.09499079 37.12291491 19 41 C14.99333485 44.8063319 11.9707972 45.23742165 6.625 45.25 C4.74923698 45.1861054 2.87367462 45.10914609 1 45 C0.06576355 41.98968256 -0.04449911 41.13349732 1 38 C1.09683764 35.37624805 1.13998263 32.77987673 1.1328125 30.15625 C1.13376923 29.39074829 1.13472595 28.62524658 1.13571167 27.83654785 C1.13639166 26.21931882 1.13454997 24.60208705 1.13037109 22.98486328 C1.12502027 20.50937774 1.13032216 18.03407364 1.13671875 15.55859375 C1.13605794 13.98697877 1.13477671 12.4153639 1.1328125 10.84375 C1.13584885 9.73271912 1.13584885 9.73271912 1.13894653 8.59924316 C1.12463282 5.46229851 0.99964247 2.9989274 0 0 Z " fill="#4E65C2" transform="translate(77,34)"/>
<path d="M0 0 C4.64990438 2.16461066 6.71605707 4.48387489 9 9 C9.82885269 14.54808604 9.7240695 19.47140883 7.3125 24.5625 C2.33597293 29.80802854 -2.02394904 30.55924733 -9 31 C-8.34 30.67 -7.68 30.34 -7 30 C-7.66 27.36 -8.32 24.72 -9 22 C-33.255 21.505 -33.255 21.505 -58 21 C-58 20.67 -58 20.34 -58 20 C-46.12 20 -34.24 20 -22 20 C-22 16.7 -22 13.4 -22 10 C-17.53810317 -0.4110926 -10.43754088 -1.1816084 0 0 Z " fill="#7E8EE2" transform="translate(61,0)"/>
<path d="M0 0 C2.93423195 1.79646854 4.47205355 2.9441071 6 6 C6.64256398 10.58974271 6.77900671 14.66163684 3.9375 18.5 C0.38858993 21.52034899 -1.36025432 22.07999562 -6 22 C-9.9171118 20.82486646 -12.25859351 19.86098819 -14.9375 16.75 C-16.29209532 13.24398857 -16.40009361 10.73420699 -16 7 C-12.56238275 -0.36632267 -7.49569379 -1.00420778 0 0 Z " fill="#576BC2" transform="translate(92,9)"/>
<path d="M0 0 C7.26 0 14.52 0 22 0 C22 1.32 22 2.64 22 4 C19.03 4 16.06 4 13 4 C13 11.59 13 19.18 13 27 C11.35 27 9.7 27 8 27 C8 19.41 8 11.82 8 4 C5.36 4 2.72 4 0 4 C0 2.68 0 1.36 0 0 Z " fill="#FAFBFB" transform="translate(15,33)"/>
<path d="M0 0 C0.33 0 0.66 0 1 0 C1.07409532 5.92648574 1.12857616 11.85270253 1.16479492 17.77954102 C1.17989179 19.79619034 1.20037115 21.81280679 1.22631836 23.8293457 C1.26266211 26.72615671 1.2797172 29.62253406 1.29296875 32.51953125 C1.30845261 33.42274612 1.32393646 34.325961 1.33988953 35.25654602 C1.34011612 36.09719101 1.34034271 36.937836 1.34057617 37.80395508 C1.34723801 38.54341873 1.35389984 39.28288239 1.36076355 40.04475403 C0.8960511 42.5633764 -0.0008436 43.44675713 -2 45 C-4.26831055 45.34057617 -4.26831055 45.34057617 -6.88671875 45.29296875 C-7.82451172 45.28330078 -8.76230469 45.27363281 -9.72851562 45.26367188 C-10.70498047 45.23853516 -11.68144531 45.21339844 -12.6875 45.1875 C-13.67556641 45.17396484 -14.66363281 45.16042969 -15.68164062 45.14648438 C-18.12164231 45.11112203 -20.56054719 45.06177033 -23 45 C-23.66 43.02 -24.32 41.04 -25 39 C-17.08 39 -9.16 39 -1 39 C-0.67 26.13 -0.34 13.26 0 0 Z " fill="#5966A7" transform="translate(53,34)"/>
<path d="M0 0 C0.66 0 1.32 0 2 0 C2.02464775 5.53588533 2.04283496 11.071739 2.05493164 16.60766602 C2.05997244 18.4924373 2.06680498 20.37720465 2.07543945 22.26196289 C2.08751617 24.96501636 2.09323068 27.66801831 2.09765625 30.37109375 C2.10281754 31.21900986 2.10797882 32.06692596 2.11329651 32.9405365 C2.11349195 34.96071068 2.06206211 36.98077934 2 39 C1 40 1 40 -1.22485352 40.11352539 C-2.18319092 40.10828857 -3.14152832 40.10305176 -4.12890625 40.09765625 C-5.68061523 40.09282227 -5.68061523 40.09282227 -7.26367188 40.08789062 C-8.35228516 40.07951172 -9.44089844 40.07113281 -10.5625 40.0625 C-12.2012207 40.05573242 -12.2012207 40.05573242 -13.87304688 40.04882812 C-16.58208495 40.03699826 -19.29101599 40.02051543 -22 40 C-22.33 39.34 -22.66 38.68 -23 38 C-16.4 38 -9.8 38 -3 38 C-0.89282515 33.78565031 -0.65888071 30.73785303 -0.5859375 26.171875 C-0.56657135 25.42286926 -0.5472052 24.67386353 -0.5272522 23.90216064 C-0.46764284 21.51822164 -0.42114646 19.13423386 -0.375 16.75 C-0.33680299 15.13018769 -0.29775025 13.51039532 -0.2578125 11.890625 C-0.16195687 7.92724594 -0.07785754 3.96377181 0 0 Z " fill="#445089" transform="translate(51,34)"/>
<path d="M0 0 C2.45933991 0.11369211 4.9167909 0.24042651 7.375 0.375 C8.07367188 0.4059375 8.77234375 0.436875 9.4921875 0.46875 C14.7734375 0.7734375 14.7734375 0.7734375 17 3 C17.1953125 5.1640625 17.1953125 5.1640625 17.125 7.625 C17.10695312 8.44226562 17.08890625 9.25953125 17.0703125 10.1015625 C17.04710937 10.72804688 17.02390625 11.35453125 17 12 C16.34 12 15.68 12 15 12 C14.34 9.36 13.68 6.72 13 4 C-11.255 3.505 -11.255 3.505 -36 3 C-36 2.67 -36 2.34 -36 2 C-24.12 2 -12.24 2 0 2 C0 1.34 0 0.68 0 0 Z " fill="#93A0DE" transform="translate(39,18)"/>
<path d="M0 0 C1.98 0.66 3.96 1.32 6 2 C6 2.33 6 2.66 6 3 C12.27 3 18.54 3 25 3 C24.01 4.485 24.01 4.485 23 6 C20.84521484 6.34057617 20.84521484 6.34057617 18.2109375 6.29296875 C17.26992188 6.28330078 16.32890625 6.27363281 15.359375 6.26367188 C14.37453125 6.23853516 13.3896875 6.21339844 12.375 6.1875 C10.88613281 6.16719727 10.88613281 6.16719727 9.3671875 6.14648438 C6.91091928 6.11105743 4.45572715 6.06166196 2 6 C1.34 4.02 0.68 2.04 0 0 Z " fill="#6271B5" transform="translate(28,73)"/>
<path d="M0 0 C13.2 0 26.4 0 40 0 C40 0.33 40 0.66 40 1 C28.12 1 16.24 1 4 1 C3.34 2.32 2.68 3.64 2 5 C1.01 5 0.02 5 -1 5 C-0.67 3.35 -0.34 1.7 0 0 Z " fill="#5262A9" transform="translate(1,21)"/>
<path d="M0 0 C0.33 0.99 0.66 1.98 1 3 C-1.40059817 4.20029908 -2.89360649 4.11459743 -5.5703125 4.09765625 C-6.46621094 4.09443359 -7.36210938 4.09121094 -8.28515625 4.08789062 C-9.22230469 4.07951172 -10.15945312 4.07113281 -11.125 4.0625 C-12.06988281 4.05798828 -13.01476563 4.05347656 -13.98828125 4.04882812 C-16.32558387 4.03702357 -18.66276061 4.02055759 -21 4 C-21.33 3.34 -21.66 2.68 -22 2 C-21.40461426 1.97494385 -20.80922852 1.9498877 -20.19580078 1.92407227 C-17.50530864 1.80822506 -14.8151766 1.68544804 -12.125 1.5625 C-11.18785156 1.52318359 -10.25070313 1.48386719 -9.28515625 1.44335938 C-8.38925781 1.40146484 -7.49335937 1.35957031 -6.5703125 1.31640625 C-5.32918701 1.26141968 -5.32918701 1.26141968 -4.06298828 1.20532227 C-1.93820571 1.11761673 -1.93820571 1.11761673 0 0 Z " fill="#38416F" transform="translate(50,70)"/>
<path d="M0 0 C6.6 0 13.2 0 20 0 C20 0.66 20 1.32 20 2 C10.595 2.495 10.595 2.495 1 3 C0.67 2.01 0.34 1.02 0 0 Z " fill="#4F60A9" transform="translate(77,34)"/>
<path d="M0 0 C2.97 0 5.94 0 9 0 C9 0.33 9 0.66 9 1 C7.35 1 5.7 1 4 1 C3.34 2.32 2.68 3.64 2 5 C1.01 5 0.02 5 -1 5 C-0.67 3.35 -0.34 1.7 0 0 Z " fill="#596AB4" transform="translate(1,21)"/>
<path d="M0 0 C0.66 0 1.32 0 2 0 C3.35439668 2.70879335 3.06501451 5.00933268 3 8 C2.01 8 1.02 8 0 8 C0 5.36 0 2.72 0 0 Z " fill="#4C5994" transform="translate(51,22)"/>
<path d="M0 0 C3.96 0 7.92 0 12 0 C12 0.33 12 0.66 12 1 C10.2984375 1.433125 10.2984375 1.433125 8.5625 1.875 C7.386875 2.24625 6.21125 2.6175 5 3 C4.67 3.66 4.34 4.32 4 5 C3.34 4.67 2.68 4.34 2 4 C2 3.34 2 2.68 2 2 C1.34 1.34 0.68 0.68 0 0 Z " fill="#8694DF" transform="translate(49,0)"/>
</svg>
