<?xml version="1.0" encoding="UTF-8"?>
<svg version="1.1" xmlns="http://www.w3.org/2000/svg" width="100" height="100">
<path d="M0 0 C0.80695313 0.55558594 1.61390625 1.11117188 2.4453125 1.68359375 C4.17905149 2.88686036 5.90576789 4.10031418 7.625 5.32421875 C9.57883918 6.70283225 11.55077453 8.02132043 13.5625 9.3125 C16 11 16 11 17 13 C17.10190128 15.07741168 17.13842312 17.15813894 17.14526367 19.23803711 C17.15164352 20.5495726 17.15802338 21.86110809 17.16459656 23.21238708 C17.16612516 24.6507056 17.16723916 26.08902461 17.16796875 27.52734375 C17.17118086 28.99703504 17.1745449 30.46672601 17.17805481 31.93641663 C17.18404745 35.01906068 17.18589456 38.1016767 17.18530273 41.18432617 C17.18520109 45.13670346 17.1988553 49.08890121 17.21607494 53.04123592 C17.22718674 56.07724333 17.2292222 59.11320721 17.22869301 62.14923286 C17.22987429 63.60649802 17.23430435 65.06376426 17.24202538 66.52100945 C17.25180846 68.55817228 17.24768733 70.59538761 17.24291992 72.63256836 C17.24434494 73.79235703 17.24576996 74.95214569 17.24723816 76.14707947 C17 79 17 79 15 82 C11.25417079 83.51228431 7.00237773 83.30986749 3.0078125 83.5 C2.22542206 83.54060547 1.44303162 83.58121094 0.63693237 83.62304688 C-1.8668719 83.75240548 -4.3709013 83.87648376 -6.875 84 C-10.14333112 84.1647033 -13.41154483 84.33160012 -16.6796875 84.5 C-17.47617706 84.54097809 -18.27266663 84.58195618 -19.09329224 84.62417603 C-27.20194055 85.04928882 -35.31171534 85.52374589 -43.39111328 86.34448242 C-47.65546063 86.74537713 -50.683983 86.95147571 -54.2421875 84.37890625 C-56.39074018 82.03389058 -58.1903175 79.61523476 -60 77 C-61.10408203 75.52660156 -61.10408203 75.52660156 -62.23046875 74.0234375 C-69.11927471 64.7814642 -69.11927471 64.7814642 -69.16113281 58.22094727 C-69.17074036 57.00951553 -69.1803479 55.7980838 -69.19024658 54.54994202 C-69.19449646 53.23537521 -69.19874634 51.92080841 -69.203125 50.56640625 C-69.20887623 49.2088165 -69.21463397 47.85122678 -69.22039795 46.49363708 C-69.23090614 43.64638897 -69.23675019 40.79916908 -69.24023438 37.9519043 C-69.2457231 34.30210877 -69.2697594 30.65268558 -69.29820633 27.00300694 C-69.31682114 24.19861253 -69.32203764 21.39430808 -69.32357025 18.5898571 C-69.32807295 16.58952905 -69.34672369 14.58924914 -69.36553955 12.58900452 C-69.36253845 11.37442062 -69.35953735 10.15983673 -69.35644531 8.90844727 C-69.36009094 7.83748306 -69.36373657 6.76651886 -69.36749268 5.6631012 C-69 3 -69 3 -67.68167114 1.17173767 C-63.51413237 -1.7320775 -57.14373631 -1.18693953 -52.2109375 -1.5 C-50.30248047 -1.62375 -50.30248047 -1.62375 -48.35546875 -1.75 C-46.38513672 -1.87375 -46.38513672 -1.87375 -44.375 -2 C-35.83865087 -2.54578056 -27.30645708 -3.10993867 -18.77929688 -3.78588867 C-11.21775692 -4.36841419 -6.41925813 -4.56806128 0 0 Z M-60 6 C-54.63544472 11.81101401 -54.63544472 11.81101401 -47.38664246 14.24687195 C-46.45620621 14.18691544 -45.52576996 14.12695892 -44.56713867 14.06518555 C-43.50641647 14.0048967 -42.44569427 13.94460785 -41.35282898 13.88249207 C-40.2193251 13.80138687 -39.08582123 13.72028168 -37.91796875 13.63671875 C-36.74865311 13.56588577 -35.57933746 13.4950528 -34.37458801 13.42207336 C-30.64440855 13.19257155 -26.91616343 12.94033551 -23.1875 12.6875 C-20.65699531 12.52779617 -18.12639656 12.36957521 -15.59570312 12.21289062 C-9.39594176 11.82578633 -3.19761415 11.42001277 3 11 C2.21149658 10.21189941 1.42299316 9.42379883 0.6105957 8.61181641 C-0.85256724 7.1479693 -2.31408052 5.68245281 -3.76953125 4.2109375 C-7.26919637 2.31094418 -10.80660269 2.56237482 -14.6875 2.625 C-15.57074951 2.63080078 -16.45399902 2.63660156 -17.36401367 2.64257812 C-31.61058067 2.90080238 -45.83485513 4.5530849 -60 6 Z M-21.33422852 18.74462891 C-23.95751059 18.87600212 -26.5811879 18.99475623 -29.20507812 19.11328125 C-30.89587162 19.19714837 -32.58662853 19.28175696 -34.27734375 19.3671875 C-35.05037338 19.40061249 -35.82340302 19.43403748 -36.61985779 19.46847534 C-41.36504909 19.72597718 -45.47715454 20.52987903 -50 22 C-50.02526563 29.81452752 -50.04283105 37.62904458 -50.05493164 45.44360352 C-50.05997383 48.10441481 -50.06680736 50.76522332 -50.07543945 53.42602539 C-50.08751009 57.24105516 -50.09322929 61.05604844 -50.09765625 64.87109375 C-50.10281754 66.06899033 -50.10797882 67.2668869 -50.11329651 68.50108337 C-50.11337204 69.6021492 -50.11344757 70.70321503 -50.11352539 71.83764648 C-50.115746 72.81249496 -50.11796661 73.78734344 -50.12025452 74.79173279 C-50.24781585 76.97472116 -50.24781585 76.97472116 -49 78 C-47.60468429 78.04160868 -46.20711493 78.00993455 -44.8125 77.94921875 C-43.44569092 77.89229858 -43.44569092 77.89229858 -42.05126953 77.83422852 C-41.04435059 77.78580811 -40.03743164 77.7373877 -39 77.6875 C-37.96085449 77.63972412 -36.92170898 77.59194824 -35.85107422 77.54272461 C-32.23357056 77.37050009 -28.61682277 77.18596656 -25 77 C-23.55371574 76.92796349 -22.1074265 76.85602685 -20.66113281 76.78417969 C-16.89390265 76.59531802 -13.127484 76.39412407 -9.36132812 76.18496704 C-7.8702795 76.10331341 -6.37906242 76.02468013 -4.88769531 75.94906616 C-2.78127542 75.84107696 -0.67588533 75.72093991 1.4296875 75.59765625 C2.64897949 75.53070557 3.86827148 75.46375488 5.12451172 75.39477539 C8.1249654 75.2779407 8.1249654 75.2779407 10 73 C10.29276047 70.57299406 10.29276047 70.57299406 10.22705078 67.72412109 C10.22682419 66.07263565 10.22682419 66.07263565 10.22659302 64.38778687 C10.21627045 63.19505157 10.20594788 62.00231628 10.1953125 60.7734375 C10.1924826 59.55548492 10.18965271 58.33753235 10.18673706 57.08267212 C10.17551256 53.18001617 10.15040372 49.27758697 10.125 45.375 C10.11497314 42.73437831 10.10584678 40.09375303 10.09765625 37.453125 C10.07556581 30.9686722 10.04206592 24.4843523 10 18 C-0.47171812 17.89106997 -10.87771543 18.21275748 -21.33422852 18.74462891 Z " fill="#101010" transform="translate(76,9)"/>
<path d="M0 0 C0.98484375 0.00902344 1.9696875 0.01804688 2.984375 0.02734375 C4.10585937 0.04474609 4.10585937 0.04474609 5.25 0.0625 C5.25 1.3825 5.25 2.7025 5.25 4.0625 C3.93 4.3925 2.61 4.7225 1.25 5.0625 C1.25 17.6025 1.25 30.1425 1.25 43.0625 C-4.97751124 45.5535045 -4.97751124 45.5535045 -9.75 44.0625 C-11.76953125 42.0859375 -11.76953125 42.0859375 -13.5625 39.4375 C-14.22894531 38.45910156 -14.89539063 37.48070312 -15.58203125 36.47265625 C-19.46935331 30.43352032 -23.11378135 24.25543488 -26.75 18.0625 C-27.08 24.9925 -27.41 31.9225 -27.75 39.0625 C-25.77 39.3925 -23.79 39.7225 -21.75 40.0625 C-23.5 43.9375 -23.5 43.9375 -25.75 45.0625 C-28.12402501 45.13366382 -30.50000677 45.14659085 -32.875 45.125 C-34.15632813 45.11597656 -35.43765625 45.10695312 -36.7578125 45.09765625 C-38.23894531 45.08025391 -38.23894531 45.08025391 -39.75 45.0625 C-39.42 43.7425 -39.09 42.4225 -38.75 41.0625 C-37.76 41.0625 -36.77 41.0625 -35.75 41.0625 C-35.75 30.1725 -35.75 19.2825 -35.75 8.0625 C-37.07 7.7325 -38.39 7.4025 -39.75 7.0625 C-38.875 3.1875 -38.875 3.1875 -37.75 2.0625 C-35.22403741 1.82596477 -32.71892793 1.64076308 -30.1875 1.5 C-29.12112305 1.43522461 -29.12112305 1.43522461 -28.03320312 1.36914062 C-26.27238088 1.26278223 -24.5112168 1.16211154 -22.75 1.0625 C-17.64177963 8.66512408 -12.64120575 16.3180909 -7.75 24.0625 C-7.42 17.7925 -7.09 11.5225 -6.75 5.0625 C-8.07 5.0625 -9.39 5.0625 -10.75 5.0625 C-10.42 3.7425 -10.09 2.4225 -9.75 1.0625 C-6.43929162 0.06140485 -3.44915231 -0.04106134 0 0 Z " fill="#1A1A1A" transform="translate(73.75,34.9375)"/>
<path d="M0 0 C0.66 0.33 1.32 0.66 2 1 C1.27087654 1.80839325 1.27087654 1.80839325 0.52702332 2.63311768 C-1.37592645 5.58268506 -1.395047 7.37639962 -1.43237305 10.87011719 C-1.45216721 12.05103943 -1.47196136 13.23196167 -1.49235535 14.44866943 C-1.49874527 15.71857727 -1.50513519 16.98848511 -1.51171875 18.296875 C-1.52966995 19.60078186 -1.54762115 20.90468872 -1.56611633 22.24810791 C-1.61356989 25.70695993 -1.6434088 29.16574694 -1.66955566 32.62481689 C-1.69938497 36.15756062 -1.74590706 39.69008043 -1.79101562 43.22265625 C-1.87699545 50.14830983 -1.94436422 57.07403801 -2 64 C-2.33 64 -2.66 64 -3 64 C-3.06948567 56.09843395 -3.12280364 48.19699537 -3.15543652 40.29519939 C-3.17109805 36.62613324 -3.19234475 32.95727599 -3.22631836 29.28833008 C-3.25889514 25.74811053 -3.27684934 22.20809201 -3.28463173 18.66773415 C-3.29287924 16.65852345 -3.31630137 14.64939372 -3.33988953 12.64030457 C-3.34011612 11.41926529 -3.34034271 10.19822601 -3.34057617 8.94018555 C-3.34723801 7.86318893 -3.35389984 6.78619232 -3.36076355 5.67655945 C-2.95741682 2.68406893 -2.36007528 1.80150294 0 0 Z " fill="#1B1B1B" transform="translate(10,9)"/>
</svg>
