<?xml version="1.0" encoding="UTF-8"?>
<svg version="1.1" xmlns="http://www.w3.org/2000/svg" width="100" height="66">
<path d="M0 0 C5.44139581 4.35311665 10.29367765 8.58252908 12.8125 15.25 C12.8125 16.57 12.8125 17.89 12.8125 19.25 C13.84375 19.3325 14.875 19.415 15.9375 19.5 C22.91105811 20.84972092 26.7274899 24.76441501 30.8125 30.25 C32.92176295 36.57778885 33.00206345 44.59902059 30.25 50.75 C27.37911305 55.59974831 23.08536655 58.49237782 17.8125 60.25 C15.67324051 60.36451499 13.5306209 60.41934842 11.38842773 60.44287109 C10.74080978 60.45104858 10.09319183 60.45922607 9.4259491 60.46765137 C7.2826732 60.49245824 5.13946366 60.50901511 2.99609375 60.5234375 C2.26111223 60.52876118 1.52613071 60.53408485 0.76887703 60.53956985 C-3.12648347 60.56628953 -7.02181215 60.58566239 -10.91723633 60.60009766 C-14.12683868 60.61339767 -17.33579932 60.64117744 -20.54516602 60.68212891 C-24.43259154 60.73172409 -28.31943836 60.75625189 -32.20716667 60.76332474 C-33.68103289 60.76999585 -35.15488831 60.78510876 -36.62857246 60.80921555 C-45.34127206 60.94353139 -52.93540025 60.6310075 -60.1875 55.25 C-67.11876856 47.89489798 -68.85251295 41.0108127 -68.56640625 30.9921875 C-67.87959951 24.20908585 -65.11017418 20.26210088 -60.5 15.4375 C-55.77345863 12.31619909 -50.58940973 9.95363241 -45.015625 8.80078125 C-42.12739157 7.93060836 -40.97740266 5.57687345 -39.1875 3.25 C-38.5275 3.25 -37.8675 3.25 -37.1875 3.25 C-37.1875 2.59 -37.1875 1.93 -37.1875 1.25 C-25.18063269 -6.25429207 -12.60281983 -6.9191952 0 0 Z " fill="#4BA9E3" transform="translate(68.1875,4.75)"/>
<path d="M0 0 C9.81867284 7.85493827 9.81867284 7.85493827 11.8125 13.25 C11.84427169 15.24974762 11.84725958 17.25030208 11.8125 19.25 C11.01110596 19.47929199 10.20971191 19.70858398 9.3840332 19.94482422 C1.63097122 22.23559197 -5.65268808 25.01927095 -13 28.375 C-15.1761872 29.35095898 -17.35329656 30.32486394 -19.53125 31.296875 C-20.62953125 31.78736328 -21.7278125 32.27785156 -22.859375 32.78320312 C-30.96602189 36.35602696 -39.16757799 39.71110549 -47.36181641 43.07714844 C-49.39567873 43.92134013 -51.42330635 44.78060989 -53.44677734 45.64941406 C-54.52008301 46.10799805 -55.59338867 46.56658203 -56.69921875 47.0390625 C-57.67721436 47.4613916 -58.65520996 47.8837207 -59.6628418 48.31884766 C-62.1875 49.25 -62.1875 49.25 -65.1875 49.25 C-69.20665782 42.38393873 -69.06322221 35.01583849 -68.1875 27.25 C-66.17988863 21.10705239 -62.57828376 16.80995154 -57.1875 13.25 C-53.2558044 11.41188557 -49.27813797 9.68241613 -45.015625 8.80078125 C-42.12739157 7.93060836 -40.97740266 5.57687345 -39.1875 3.25 C-38.5275 3.25 -37.8675 3.25 -37.1875 3.25 C-37.1875 2.59 -37.1875 1.93 -37.1875 1.25 C-25.18063269 -6.25429207 -12.60281983 -6.9191952 0 0 Z " fill="#297ECC" transform="translate(68.1875,4.75)"/>
<path d="M0 0 C9.81867284 7.85493827 9.81867284 7.85493827 11.8125 13.25 C11.9375 16.5 11.9375 16.5 11.8125 19.25 C10.97847656 19.50394531 10.14445312 19.75789063 9.28515625 20.01953125 C8.15980469 20.36371094 7.03445312 20.70789063 5.875 21.0625 C4.77285156 21.39894531 3.67070313 21.73539063 2.53515625 22.08203125 C-0.97020363 23.08437177 -0.97020363 23.08437177 -3.27905273 24.25390625 C-6.74924127 25.79740324 -8.98744253 26.65315257 -12.6809082 25.41235352 C-15.36193474 23.95181919 -17.85742338 22.35166496 -20.375 20.625 C-22.09670258 19.50634336 -23.81933569 18.38911735 -25.54296875 17.2734375 C-26.34637695 16.74371338 -27.14978516 16.21398926 -27.97753906 15.66821289 C-33.04920371 12.4135399 -37.18299075 10.85045093 -43.1875 10.25 C-41.71057692 5.57307692 -41.71057692 5.57307692 -39.0625 3.9375 C-38.44375 3.710625 -37.825 3.48375 -37.1875 3.25 C-37.1875 2.59 -37.1875 1.93 -37.1875 1.25 C-25.18063269 -6.25429207 -12.60281983 -6.9191952 0 0 Z " fill="#236CB2" transform="translate(68.1875,4.75)"/>
<path d="M0 0 C0.33 1.32 0.66 2.64 1 4 C2.03125 4.0825 3.0625 4.165 4.125 4.25 C11.09855811 5.59972092 14.9149899 9.51441501 19 15 C20.12050151 18.36150452 20.13296652 20.96286726 20.125 24.5 C20.12886719 26.21703125 20.12886719 26.21703125 20.1328125 27.96875 C20 31 20 31 19 34 C15.65722828 33.34505247 13.17040055 32.0814674 10.25390625 30.33984375 C9.33947754 29.79690674 8.42504883 29.25396973 7.48291016 28.69458008 C6.5191748 28.11474365 5.55543945 27.53490723 4.5625 26.9375 C3.58071777 26.35057373 2.59893555 25.76364746 1.58740234 25.15893555 C-0.3730728 23.9850708 -2.33208659 22.8087616 -4.28955078 21.62988281 C-6.63405884 20.22005253 -8.98501782 18.82217495 -11.33984375 17.4296875 C-12.51864336 16.72465039 -13.69706835 16.01898628 -14.875 15.3125 C-16.38707031 14.40951172 -16.38707031 14.40951172 -17.9296875 13.48828125 C-18.61289062 12.99714844 -19.29609375 12.50601563 -20 12 C-20 11.34 -20 10.68 -20 10 C-17.60824639 8.98914564 -15.21238415 7.99120797 -12.8125 7 C-11.80219727 6.57074219 -11.80219727 6.57074219 -10.77148438 6.1328125 C-7.05006206 4.60793701 -4.03528592 3.62389568 0 4 C0 2.68 0 1.36 0 0 Z " fill="#3A93D6" transform="translate(80,20)"/>
</svg>
