<?xml version="1.0" encoding="UTF-8"?>
<svg version="1.1" xmlns="http://www.w3.org/2000/svg" width="100" height="100">
<path d="M0 0 C2.79084553 1.2134111 4.39971591 2.11641352 6.10961914 4.63330078 C7.3513765 7.93398513 7.34458322 11.13577055 7.37109375 14.6171875 C7.38463646 15.71935104 7.38463646 15.71935104 7.39845276 16.84378052 C7.41293076 18.39532411 7.42183591 19.94692843 7.42553711 21.49853516 C7.4374283 23.86075737 7.48662527 26.22036039 7.53710938 28.58203125 C7.54657544 30.09373733 7.5538096 31.60545936 7.55859375 33.1171875 C7.57812607 33.81738007 7.59765839 34.51757263 7.61778259 35.23898315 C7.56626448 40.89573196 5.85754327 43.17263639 2 47 C-1.22859847 48.61429923 -4.50993653 48.59570657 -8 48 C-11.02508145 46.26397895 -13.41790069 44.16419863 -15 41 C-15.28339763 36.22026573 -15.31374058 31.43968639 -15.35009766 26.65234375 C-15.36662653 25.05779392 -15.39387651 23.46331725 -15.43212891 21.86914062 C-15.48714107 19.56341345 -15.50880817 17.2594217 -15.5234375 14.953125 C-15.54610687 14.24665833 -15.56877625 13.54019165 -15.59213257 12.81231689 C-15.57573732 8.93620202 -14.99278501 6.53031868 -12.59228516 3.56542969 C-8.63849555 -0.34739959 -5.41627252 -0.58217133 0 0 Z " fill="#5DB081" transform="translate(67,0)"/>
<path d="M0 0 C1.59454983 -0.01652887 3.1890265 -0.04377886 4.78320312 -0.08203125 C7.0889303 -0.13704341 9.39292205 -0.15871051 11.69921875 -0.17333984 C12.40568542 -0.19600922 13.1121521 -0.21867859 13.84002686 -0.24203491 C17.71614173 -0.22563966 20.12202507 0.35731264 23.08691406 2.7578125 C26.27391266 5.97817328 26.57413802 6.56804035 27.02734375 11.10009766 C27.0029315 14.45067834 26.40835729 16.19904298 24.27734375 18.78759766 C19.02557073 23.91432847 12.25466129 22.64741431 5.3046875 22.70019531 C3.71013767 22.71672418 2.115661 22.74397417 0.52148438 22.78222656 C-1.7842428 22.83723873 -4.08823455 22.85890583 -6.39453125 22.87353516 C-7.45423126 22.90753922 -7.45423126 22.90753922 -8.53533936 22.94223022 C-12.41145423 22.92583498 -14.81733757 22.34288267 -17.78222656 19.94238281 C-20.96922516 16.72202203 -21.26945052 16.13215497 -21.72265625 11.60009766 C-21.698244 8.24951697 -21.10366979 6.50115233 -18.97265625 3.91259766 C-13.72088323 -1.21413315 -6.94997379 0.052781 0 0 Z " fill="#62C5E9" transform="translate(21.34765625,25.64990234375)"/>
<path d="M0 0 C3.0190434 1.75299294 5.41511201 3.83022401 7 7 C7.28339763 11.77973427 7.31374058 16.56031361 7.35009766 21.34765625 C7.36662653 22.94220608 7.39387651 24.53668275 7.43212891 26.13085938 C7.48714107 28.43658655 7.50880817 30.7405783 7.5234375 33.046875 C7.54610687 33.75334167 7.56877625 34.45980835 7.59213257 35.18768311 C7.57573732 39.06379798 6.99278501 41.46968132 4.59228516 44.43457031 C1.37192437 47.62156891 0.78205731 47.92179427 -3.75 48.375 C-7.06751516 48.34478584 -8.85116622 47.77284903 -11.4375 45.6875 C-16.52962562 40.34697801 -15.22195926 33.32862434 -15.24023438 26.37646484 C-15.24993528 24.13992047 -15.28096772 21.90429739 -15.3125 19.66796875 C-15.31903116 18.23958877 -15.32428119 16.81120224 -15.328125 15.3828125 C-15.3374707 14.08746582 -15.34681641 12.79211914 -15.35644531 11.45751953 C-14.89275756 6.9597483 -13.34613242 4.44584594 -10.3125 1.1875 C-6.89127695 -0.56934427 -3.7048151 -0.78220664 0 0 Z " fill="#CD4063" transform="translate(41,52)"/>
<path d="M0 0 C1.59454983 -0.01652887 3.1890265 -0.04377886 4.78320312 -0.08203125 C7.0889303 -0.13704341 9.39292205 -0.15871051 11.69921875 -0.17333984 C12.40568542 -0.19600922 13.1121521 -0.21867859 13.84002686 -0.24203491 C17.71614173 -0.22563966 20.12202507 0.35731264 23.08691406 2.7578125 C26.27391266 5.97817328 26.57413802 6.56804035 27.02734375 11.10009766 C26.99712959 14.41761281 26.42519278 16.20126387 24.33984375 18.78759766 C18.99932176 23.87972327 11.98096809 22.57205691 5.02880859 22.59033203 C2.79226422 22.60003294 0.55664114 22.63106537 -1.6796875 22.66259766 C-3.10806748 22.66912881 -4.53645401 22.67437884 -5.96484375 22.67822266 C-7.26019043 22.68756836 -8.55553711 22.69691406 -9.89013672 22.70654297 C-14.38790795 22.24285521 -16.90181031 20.69623008 -20.16015625 17.66259766 C-21.91700052 14.24137461 -22.12986289 11.05491275 -21.34765625 7.35009766 C-16.32162172 -1.3058507 -8.81767539 0.0669651 0 0 Z " fill="#E3B152" transform="translate(73.34765625,51.64990234375)"/>
<path d="M0 0 C2.39652528 -0.08139142 4.79025436 -0.14067009 7.1875 -0.1875 C7.86103516 -0.21263672 8.53457031 -0.23777344 9.22851562 -0.26367188 C13.71016614 -0.329257 16.42582029 0.27935574 20 3 C22.31069059 5.9708879 22.47087809 9.25161104 22.39453125 12.96484375 C21.68647817 16.61727597 19.62465368 18.43783808 17 21 C13.77140153 22.61429923 10.49006347 22.59570657 7 22 C3.97491855 20.26397895 1.58209931 18.16419863 0 15 C-0.0716735 12.44842345 -0.09308442 9.92527029 -0.0625 7.375 C-0.05798828 6.66859375 -0.05347656 5.9621875 -0.04882812 5.234375 C-0.03703875 3.48954725 -0.01910324 1.744763 0 0 Z " fill="#E3B357" transform="translate(52,78)"/>
<path d="M0 0 C1.05960938 0.00676758 1.05960938 0.00676758 2.140625 0.01367188 C3.88545275 0.02546125 5.630237 0.04339676 7.375 0.0625 C7.45639142 2.45902528 7.51567009 4.85275436 7.5625 7.25 C7.58763672 7.92353516 7.61277344 8.59707031 7.63867188 9.29101562 C7.70424242 13.77166985 7.09986063 16.4915335 4.375 20.0625 C0.95323311 22.62882517 -2.47140421 22.42685051 -6.625 22.0625 C-10.24842508 20.4154886 -12.79316086 18.6297657 -14.625 15.0625 C-15.46957478 8.51704545 -15.46957478 8.51704545 -13.5703125 5.24609375 C-9.31991674 0.02741256 -6.36214227 -0.07629875 0 0 Z " fill="#CE4164" transform="translate(14.625,51.9375)"/>
<path d="M0 0 C3.02089981 1.7475743 5.41608883 3.83217766 7 7 C7.68128376 13.81283762 7.68128376 13.81283762 5.953125 16.82421875 C4.17156722 18.98828747 2.52390368 20.73804816 0 22 C-2.55157655 22.0716735 -5.07472971 22.09308442 -7.625 22.0625 C-8.33140625 22.05798828 -9.0378125 22.05347656 -9.765625 22.04882812 C-11.51045275 22.03703875 -13.255237 22.01910324 -15 22 C-15.08165496 19.79229195 -15.13948488 17.58369575 -15.1875 15.375 C-15.23970703 13.53035156 -15.23970703 13.53035156 -15.29296875 11.6484375 C-14.97619014 7.70348784 -14.04053181 5.36087593 -12 2 C-8.63589174 -0.74112525 -4.14470118 -0.80348334 0 0 Z " fill="#5DAF81" transform="translate(93,26)"/>
<path d="M0 0 C3.01286852 1.76997892 5.41228811 3.82457623 7 7 C7.0716735 9.55157655 7.09308442 12.07472971 7.0625 14.625 C7.05798828 15.33140625 7.05347656 16.0378125 7.04882812 16.765625 C7.03703875 18.51045275 7.01910324 20.255237 7 22 C-6.95906226 22.68839211 -6.95906226 22.68839211 -10.75 20.25 C-13.4008705 17.5991295 -14.86261914 15.59991456 -15.1875 11.81640625 C-14.82058796 7.40581783 -14.36134948 5.4318567 -11.4375 1.9375 C-7.37248291 -0.35369145 -4.55564431 -1.15928921 0 0 Z " fill="#63C4E8" transform="translate(41,0)"/>
<path d="M0 0 C1.05960938 0.00676758 1.05960938 0.00676758 2.140625 0.01367188 C3.88545275 0.02546125 5.630237 0.04339676 7.375 0.0625 C7.375 4.3525 7.375 8.6425 7.375 13.0625 C7.045 13.0625 6.715 13.0625 6.375 13.0625 C6.375 9.4325 6.375 5.8025 6.375 2.0625 C4.31173023 2.15010589 2.2493284 2.25829273 0.1875 2.375 C-0.96105469 2.43300781 -2.10960937 2.49101563 -3.29296875 2.55078125 C-6.83925592 3.09540449 -8.81092765 3.86018251 -11.625 6.0625 C-12.99400354 9.64246259 -12.99400354 9.64246259 -13.625 13.0625 C-13.955 13.0625 -14.285 13.0625 -14.625 13.0625 C-14.97251969 10.14333462 -15.15780018 7.93054524 -13.58203125 5.36328125 C-9.23073508 0.09323633 -6.50321257 -0.07799056 0 0 Z " fill="#C1516E" transform="translate(14.625,51.9375)"/>
<path d="M0 0 C0.66 0.66 1.32 1.32 2 2 C-0.94369145 3.47184573 -3.73383414 3 -7 3 C-8.67557379 3.28520405 -10.34817245 3.59955696 -12 4 C-8.41606395 -0.7785814 -5.59971929 -0.54190832 0 0 Z " fill="#C35473" transform="translate(41,52)"/>
<path d="M0 0 C0.66 0.33 1.32 0.66 2 1 C-0.31 3.31 -2.62 5.62 -5 8 C-5.33 7.34 -5.66 6.68 -6 6 C-5.0950754 3.36749208 -4.34351194 2.22542971 -2 0.6875 C-1.34 0.460625 -0.68 0.23375 0 0 Z " fill="#72B593" transform="translate(85,26)"/>
</svg>
